<mxfile host="app.diagrams.net" modified="2021-09-28T20:25:52.376Z" agent="5.0 (Windows NT 10.0; Win64; x64) AppleWebKit/537.36 (KHTML, like Gecko) Chrome/94.0.4606.61 Safari/537.36" etag="qFSIbDQbRrZlYYBPY9oB" version="15.3.7" type="github">
  <diagram id="7XgcAFt9QcE2Du0NLSQS" name="Page-1">
    <mxGraphModel dx="1422" dy="739" grid="1" gridSize="10" guides="1" tooltips="1" connect="1" arrows="1" fold="1" page="1" pageScale="1" pageWidth="827" pageHeight="1169" math="0" shadow="0">
      <root>
        <mxCell id="0" />
        <mxCell id="1" parent="0" />
        <mxCell id="ecQTVJYfgxTxjokufN85-1" value="" style="whiteSpace=wrap;html=1;aspect=fixed;" vertex="1" parent="1">
          <mxGeometry x="150" y="160" width="170" height="170" as="geometry" />
        </mxCell>
        <mxCell id="ecQTVJYfgxTxjokufN85-2" value="&lt;font style=&quot;font-size: 19px&quot;&gt;Server&lt;/font&gt;" style="text;html=1;strokeColor=none;fillColor=none;align=center;verticalAlign=middle;whiteSpace=wrap;rounded=0;" vertex="1" parent="1">
          <mxGeometry x="195" y="210" width="80" height="70" as="geometry" />
        </mxCell>
        <mxCell id="ecQTVJYfgxTxjokufN85-12" style="edgeStyle=orthogonalEdgeStyle;rounded=0;orthogonalLoop=1;jettySize=auto;html=1;exitX=0;exitY=0.5;exitDx=0;exitDy=0;entryX=1;entryY=0.25;entryDx=0;entryDy=0;" edge="1" parent="1" source="ecQTVJYfgxTxjokufN85-3" target="ecQTVJYfgxTxjokufN85-1">
          <mxGeometry relative="1" as="geometry" />
        </mxCell>
        <mxCell id="ecQTVJYfgxTxjokufN85-3" value="" style="whiteSpace=wrap;html=1;aspect=fixed;" vertex="1" parent="1">
          <mxGeometry x="414" y="20" width="170" height="170" as="geometry" />
        </mxCell>
        <mxCell id="ecQTVJYfgxTxjokufN85-4" value="&lt;font style=&quot;font-size: 19px&quot;&gt;Client&lt;br&gt;&lt;br&gt;&lt;/font&gt;" style="text;html=1;strokeColor=none;fillColor=none;align=center;verticalAlign=middle;whiteSpace=wrap;rounded=0;" vertex="1" parent="1">
          <mxGeometry x="459" y="70" width="80" height="70" as="geometry" />
        </mxCell>
        <mxCell id="ecQTVJYfgxTxjokufN85-13" style="edgeStyle=orthogonalEdgeStyle;rounded=0;orthogonalLoop=1;jettySize=auto;html=1;exitX=0;exitY=0.25;exitDx=0;exitDy=0;entryX=1;entryY=0.75;entryDx=0;entryDy=0;" edge="1" parent="1" source="ecQTVJYfgxTxjokufN85-5" target="ecQTVJYfgxTxjokufN85-1">
          <mxGeometry relative="1" as="geometry" />
        </mxCell>
        <mxCell id="ecQTVJYfgxTxjokufN85-5" value="" style="whiteSpace=wrap;html=1;aspect=fixed;" vertex="1" parent="1">
          <mxGeometry x="414" y="270" width="170" height="170" as="geometry" />
        </mxCell>
        <mxCell id="ecQTVJYfgxTxjokufN85-6" value="&lt;font style=&quot;font-size: 19px&quot;&gt;Client&lt;br&gt;&lt;br&gt;&lt;/font&gt;" style="text;html=1;strokeColor=none;fillColor=none;align=center;verticalAlign=middle;whiteSpace=wrap;rounded=0;" vertex="1" parent="1">
          <mxGeometry x="459" y="320" width="80" height="70" as="geometry" />
        </mxCell>
        <mxCell id="ecQTVJYfgxTxjokufN85-14" style="edgeStyle=orthogonalEdgeStyle;rounded=0;orthogonalLoop=1;jettySize=auto;html=1;exitX=0.75;exitY=0;exitDx=0;exitDy=0;" edge="1" parent="1" source="ecQTVJYfgxTxjokufN85-7" target="ecQTVJYfgxTxjokufN85-1">
          <mxGeometry relative="1" as="geometry" />
        </mxCell>
        <mxCell id="ecQTVJYfgxTxjokufN85-7" value="" style="whiteSpace=wrap;html=1;aspect=fixed;" vertex="1" parent="1">
          <mxGeometry x="150" y="400" width="170" height="170" as="geometry" />
        </mxCell>
        <mxCell id="ecQTVJYfgxTxjokufN85-8" value="&lt;font style=&quot;font-size: 19px&quot;&gt;Client&lt;br&gt;&lt;br&gt;&lt;/font&gt;" style="text;html=1;strokeColor=none;fillColor=none;align=center;verticalAlign=middle;whiteSpace=wrap;rounded=0;" vertex="1" parent="1">
          <mxGeometry x="195" y="460" width="80" height="70" as="geometry" />
        </mxCell>
        <mxCell id="ecQTVJYfgxTxjokufN85-11" style="edgeStyle=orthogonalEdgeStyle;rounded=0;orthogonalLoop=1;jettySize=auto;html=1;exitX=0;exitY=0.5;exitDx=0;exitDy=0;entryX=1;entryY=0.5;entryDx=0;entryDy=0;" edge="1" parent="1" source="ecQTVJYfgxTxjokufN85-9" target="ecQTVJYfgxTxjokufN85-1">
          <mxGeometry relative="1" as="geometry" />
        </mxCell>
        <mxCell id="ecQTVJYfgxTxjokufN85-9" value="" style="whiteSpace=wrap;html=1;aspect=fixed;" vertex="1" parent="1">
          <mxGeometry x="620" y="120" width="170" height="170" as="geometry" />
        </mxCell>
        <mxCell id="ecQTVJYfgxTxjokufN85-10" value="&lt;font style=&quot;font-size: 19px&quot;&gt;Client&lt;br&gt;&lt;br&gt;&lt;/font&gt;" style="text;html=1;strokeColor=none;fillColor=none;align=center;verticalAlign=middle;whiteSpace=wrap;rounded=0;" vertex="1" parent="1">
          <mxGeometry x="665" y="170" width="80" height="70" as="geometry" />
        </mxCell>
        <mxCell id="ecQTVJYfgxTxjokufN85-17" style="edgeStyle=orthogonalEdgeStyle;rounded=0;orthogonalLoop=1;jettySize=auto;html=1;exitX=0;exitY=0;exitDx=0;exitDy=0;entryX=1;entryY=1;entryDx=0;entryDy=0;" edge="1" parent="1" source="ecQTVJYfgxTxjokufN85-15" target="ecQTVJYfgxTxjokufN85-1">
          <mxGeometry relative="1" as="geometry">
            <Array as="points">
              <mxPoint x="380" y="530" />
              <mxPoint x="380" y="430" />
              <mxPoint x="350" y="430" />
              <mxPoint x="350" y="330" />
            </Array>
          </mxGeometry>
        </mxCell>
        <mxCell id="ecQTVJYfgxTxjokufN85-15" value="" style="whiteSpace=wrap;html=1;aspect=fixed;" vertex="1" parent="1">
          <mxGeometry x="480" y="530" width="170" height="170" as="geometry" />
        </mxCell>
        <mxCell id="ecQTVJYfgxTxjokufN85-16" value="&lt;font style=&quot;font-size: 19px&quot;&gt;Accounts/Channels Server&lt;/font&gt;" style="text;html=1;strokeColor=none;fillColor=none;align=center;verticalAlign=middle;whiteSpace=wrap;rounded=0;" vertex="1" parent="1">
          <mxGeometry x="525" y="580" width="80" height="70" as="geometry" />
        </mxCell>
      </root>
    </mxGraphModel>
  </diagram>
</mxfile>
